<svg width="123" height="104" viewBox="0 0 123 104" fill="none" xmlns="http://www.w3.org/2000/svg">
<path d="M96.6261 74.5502C91.5054 84.6841 83.0879 92.7733 72.7585 97.4873C62.4291 102.201 50.8029 103.259 39.7923 100.487C28.7817 97.7147 19.0425 91.2776 12.1768 82.2343C5.31106 73.1911 1.7277 62.0804 2.01615 50.7299C2.30459 39.3793 6.44767 28.4649 13.7639 19.7821C21.08 11.0993 31.1336 5.16513 42.2708 2.95578C53.408 0.746429 64.9655 2.39347 75.0421 7.62598C85.1188 12.8585 93.1145 21.3648 97.7139 31.7457" stroke="#CED9DF" stroke-width="3"/>
<path d="M97.4 35H99.6V70H97.4V53.1H74.25V70H72.05V35H74.25V51H97.4V35Z" fill="#CED9DF"/>
<path d="M122.2 70H119.1L100.25 52.5V70H98.05V35H100.25V51.1L117.65 35H120.7L102.6 51.75L122.2 70Z" fill="#CED9DF"/>
</svg>
